<svg id="Layer_1" data-name="Layer 1" xmlns="http://www.w3.org/2000/svg" viewBox="0 0 895.52 896.89"><title>deno-blog-logo</title><circle cx="447.76" cy="447.76" r="447.26" style="fill:#009ad6;stroke:#000;stroke-miterlimit:10"/><path d="M650.62,848c.7-25.37,1.79-65.82,3-115.83,3.72-154.34,1.66-113.61,3-150.28,3.34-91.8,7.39-103.92,0-139.31-5.78-27.63-13.9-64.28-43.42-97.06-30.56-33.93-66.85-44.61-80.84-48.52-29-8.12-45.08-4.69-142.22,12.52-62.2,11-118.65,20.79-172.16,50.09-13.84,7.58-32.25,19.07-40.42,40.7-6.86,18.15-3.58,35.67,0,54.79,2.82,15.1,6.83,36.47,22.45,57.92,6.2,8.5,25.56,35.23,55.39,40.7,22.18,4.06,35.07-6.39,83.84-29.75,52.66-25.22,79-37.83,88.32-32.87,29.51,15.7,16.25,105.44-6,248.89,0,0-2.32,37.07-16.47,95.49a176.37,176.37,0,0,1-12,34.44c-2.88,6.1-5.61,10.93-7.48,14.08l-9,9.4L456,899.66l58.38-9.39,67.37-15.66Z" transform="translate(-2.73 -3.27)" style="fill:#4cff6d;stroke:#000;stroke-miterlimit:10"/><circle cx="443.65" cy="345.02" r="15.75" style="stroke:#000;stroke-miterlimit:10"/><path d="M473.06,494a476.33,476.33,0,0,0,107.06-25.35c16.52-6,33.26-12.59,48.58-21.28A116.56,116.56,0,0,0,639,440.83c2.44-1.75,7.22-4.36,8.43-7.16,1.3-3-1.36-5.27-3.87-3.11a1.46,1.46,0,0,0-.38,1.46l.16.49c.59,1.84,3.48,1.05,2.89-.79.11.33-9.52,7.07-10.17,7.52-3.12,2.15-6.36,4.12-9.66,6-6.14,3.43-12.52,6.4-18.95,9.23a461.73,461.73,0,0,1-44,16.77A474,474,0,0,1,473.06,491c-1.89.22-1.92,3.23,0,3Z" transform="translate(-2.73 -3.27)"/><path d="M436.11,501.16a1.5,1.5,0,0,0,0-3,1.5,1.5,0,0,0,0,3Z" transform="translate(-2.73 -3.27)"/><path d="M486.79,495.68a1.5,1.5,0,0,0,0-3,1.5,1.5,0,0,0,0,3Z" transform="translate(-2.73 -3.27)"/><path d="M473.1,491.57a1.5,1.5,0,0,0,0-3,1.5,1.5,0,0,0,0,3Z" transform="translate(-2.73 -3.27)"/><path d="M456.66,499.79a1.5,1.5,0,0,0,0-3,1.5,1.5,0,0,0,0,3Z" transform="translate(-2.73 -3.27)"/><path d="M470.36,494.31a1.5,1.5,0,0,0,0-3,1.5,1.5,0,0,0,0,3Z" transform="translate(-2.73 -3.27)"/><path d="M476.59,492.73l3.84-2.37a1.5,1.5,0,0,0-1.51-2.59A70.87,70.87,0,0,1,444.33,494c-1.93-.13-1.92,2.87,0,3a73.94,73.94,0,0,0,36.1-6.67l-1.51-2.59-3.84,2.37c-1.64,1-.14,3.61,1.51,2.59Z" transform="translate(-2.73 -3.27)"/><path d="M458,499.79a1.5,1.5,0,0,0,0-3,1.5,1.5,0,0,0,0,3Z" transform="translate(-2.73 -3.27)"/><path d="M432.91,500.36c24.21,4.81,47.63-7.48,71.85-4.35,1.91.25,1.9-2.75,0-3-23.94-3.1-47.19,9.19-71.05,4.46-1.89-.38-2.69,2.51-.8,2.89Z" transform="translate(-2.73 -3.27)"/><path d="M649.8,424.33a15.9,15.9,0,0,1-6.26,11c-1.52,1.15,0,3.75,1.52,2.59a19.23,19.23,0,0,0,7.74-13.57c.21-1.92-2.79-1.91-3,0Z" transform="translate(-2.73 -3.27)"/><path d="M428.09,498.58a10.43,10.43,0,0,1-1.59,9.84c-1.15,1.55,1.46,3.05,2.59,1.51A13.22,13.22,0,0,0,431,497.79c-.61-1.82-3.51-1-2.89.79Z" transform="translate(-2.73 -3.27)"/><path d="M429.17,755.53l32.3,9.47L438.84,495.75Q434,625.64,429.17,755.53Z" transform="translate(-2.73 -3.27)" style="fill:#f80;stroke:#000;stroke-miterlimit:10"/><path d="M552.55,324.45a1.5,1.5,0,0,0,0-3,1.5,1.5,0,0,0,0,3Z" transform="translate(-2.73 -3.27)" style="fill:red"/><path d="M541.59,317.6a1.5,1.5,0,0,0,0-3,1.5,1.5,0,0,0,0,3Z" transform="translate(-2.73 -3.27)" style="fill:red"/><path d="M529.26,317.6a1.5,1.5,0,0,0,0-3,1.5,1.5,0,0,0,0,3Z" transform="translate(-2.73 -3.27)" style="fill:red"/><path d="M534.74,319a1.5,1.5,0,0,0,0-3,1.5,1.5,0,0,0,0,3Z" transform="translate(-2.73 -3.27)" style="fill:red"/><path d="M527.89,319a1.5,1.5,0,0,0,0-3,1.5,1.5,0,0,0,0,3Z" transform="translate(-2.73 -3.27)" style="fill:red"/><path d="M522.41,312.12a1.5,1.5,0,0,0,0-3,1.5,1.5,0,0,0,0,3Z" transform="translate(-2.73 -3.27)" style="fill:red"/><path d="M522.41,309.38a1.5,1.5,0,0,0,0-3,1.5,1.5,0,0,0,0,3Z" transform="translate(-2.73 -3.27)" style="fill:red"/><path d="M511.45,320.34a1.5,1.5,0,0,0,0-3,1.5,1.5,0,0,0,0,3Z" transform="translate(-2.73 -3.27)" style="fill:red"/><path d="M518.3,308a1.5,1.5,0,0,0,0-3,1.5,1.5,0,0,0,0,3Z" transform="translate(-2.73 -3.27)" style="fill:red"/><path d="M519.67,308a1.5,1.5,0,0,0,0-3,1.5,1.5,0,0,0,0,3Z" transform="translate(-2.73 -3.27)" style="fill:red"/><path d="M575.44,324.39l21.91,5.48c1.88.47,2.68-2.42.8-2.89l-21.92-5.48c-1.87-.47-2.67,2.42-.79,2.89Z" transform="translate(-2.73 -3.27)" style="fill:red"/><path d="M534.74,319a1.5,1.5,0,0,0,0-3,1.5,1.5,0,0,0,0,3Z" transform="translate(-2.73 -3.27)" style="fill:red"/><path d="M526.52,314.86a1.5,1.5,0,0,0,0-3,1.5,1.5,0,0,0,0,3Z" transform="translate(-2.73 -3.27)" style="fill:red"/><path d="M519.67,306.64a1.5,1.5,0,0,0,0-3,1.5,1.5,0,0,0,0,3Z" transform="translate(-2.73 -3.27)" style="fill:red"/><path d="M537.48,317.6a1.5,1.5,0,0,0,0-3,1.5,1.5,0,0,0,0,3Z" transform="translate(-2.73 -3.27)" style="fill:red"/><path d="M535.8,318.53l1.37-1.37a1.53,1.53,0,0,0,0-2.12,1.51,1.51,0,0,0-2.12,0l-1.37,1.37a1.5,1.5,0,0,0,2.12,2.12Z" transform="translate(-2.73 -3.27)" style="fill:red"/><path d="M545.7,324.45a1.5,1.5,0,0,0,0-3,1.5,1.5,0,0,0,0,3Z" transform="translate(-2.73 -3.27)" style="fill:red"/><path d="M544.33,324.45a1.5,1.5,0,0,0,0-3,1.5,1.5,0,0,0,0,3Z" transform="translate(-2.73 -3.27)" style="fill:red"/><path d="M538.67,312.61a150.23,150.23,0,0,0,25.8,5.27c9.66,1.08,20-.23,29.46,2.07,15.79,3.83,26.38,18.08,35.42,30.53l.89-2.21a12.79,12.79,0,0,1-10.71-2.51c-1.55-1.15-3,1.46-1.51,2.59a15.75,15.75,0,0,0,13,2.82,1.52,1.52,0,0,0,.9-2.21c-8.76-12.06-18.56-25.2-33-30.62-8.68-3.24-18-2.28-27-2.82a144.82,144.82,0,0,1-32.38-5.81c-1.85-.55-2.65,2.35-.8,2.9Z" transform="translate(-2.73 -3.27)" style="fill:red"/><path d="M549.89,329.29c6.47-11.11,26.59-3.85,36-1.35a212.92,212.92,0,0,1,40.89,15.68l1.15-2.74-15.94-3.36c-1.89-.4-2.69,2.5-.8,2.89l15.94,3.37c1.58.33,2.76-1.94,1.16-2.75a215.6,215.6,0,0,0-48.76-17.76c-10-2.3-25.76-6.51-32.18,4.5a1.5,1.5,0,0,0,2.59,1.52Z" transform="translate(-2.73 -3.27)" style="fill:red"/><path d="M544.52,314.76c.76-6.74,19.72-3.75,24.1-3.35a97.35,97.35,0,0,1,24.45,5.18c14,5.1,26.32,14.44,33.16,27.86l2-2.06-9.22-5.66c-1.65-1-3.16,1.58-1.52,2.59l9.22,5.66c1.35.83,2.71-.77,2.06-2.05-8.2-16.08-23.93-26.41-41-31.15a122.68,122.68,0,0,0-31-4c-5.57-.07-14.42-.35-15.24,6.94-.21,1.91,2.79,1.9,3,0Z" transform="translate(-2.73 -3.27)" style="fill:red"/><path d="M539.21,318.2c15.51-11,35.2-11.5,52.79-5.69A105.72,105.72,0,0,1,617.08,325c7.62,5.05,14.76,11.45,16.58,20.8l1.85-1.84A93.77,93.77,0,0,1,616.33,334c-1.6-1.07-3.11,1.52-1.51,2.59a96.92,96.92,0,0,0,19.89,10.23c1.16.44,2-.83,1.84-1.84-1.66-8.52-7.43-14.89-14.2-20a105.57,105.57,0,0,0-27.91-14.83c-18.69-6.58-40.13-6.3-56.74,5.44-1.57,1.1-.07,3.71,1.51,2.59Z" transform="translate(-2.73 -3.27)" style="fill:red"/><path d="M533.34,320c-5.18-4.65-1-12.07,4.34-14.28,5.12-2.13,10.92-1.49,16.31-1a331.62,331.62,0,0,1,36.6,4.92c10.44,2.08,20.68,5.57,27.31,14.39,7.19,9.57,12.15,21.31,17.8,31.82a1.52,1.52,0,0,0,2.8-.76c-.39-9.49-10.27-15.28-17.51-19.72a107.36,107.36,0,0,0-31.87-13c-5.62-1.29-11.36-2-16.94-3.45-6.32-1.66-11.38-5.15-17.25-7.78-10.47-4.69-19.54.54-28,6.78a1.51,1.51,0,0,0,1.16,2.74,142.23,142.23,0,0,1,63.34,4.78c17,5.34,33.74,14.92,41.6,31.61l2.59-1.51-3.69-5.88c-1-1.64-3.63-.13-2.6,1.51L633,357a1.5,1.5,0,0,0,2.59-1.51c-8-16.9-24.77-26.89-42-32.53a145,145,0,0,0-66.38-5.24l1.15,2.74c4.13-3,8.46-6.26,13.46-7.68,6.21-1.76,11.28.61,16.65,3.61,8.39,4.69,17.08,6.25,26.41,8.11a106,106,0,0,1,27.82,9.67c7.73,4,22.31,10.92,22.72,20.9l2.79-.76c-3.9-7.24-7.78-14.5-11.7-21.74-3.13-5.78-6.36-11.63-11.46-15.94-9.86-8.33-23.59-10.1-35.9-11.95q-11.15-1.68-22.37-2.72c-6.12-.57-12.79-1.51-18.79.4-7.89,2.52-14.26,13.12-6.85,19.79,1.43,1.28,3.56-.83,2.12-2.13Z" transform="translate(-2.73 -3.27)" style="fill:red"/><path d="M526.76,309.76c12.33-2.42,24.84-4.88,37.47-4.18a74.22,74.22,0,0,1,32.89,10.11c19.9,11.51,33.75,30.73,42.39,51.7l2.2-1.7-10.5-5.33c-1.72-.87-3.24,1.72-1.52,2.59l10.51,5.33c1,.53,2.74-.38,2.2-1.69-8.94-21.71-23.15-41.57-43.77-53.49a77.88,77.88,0,0,0-31.56-10.3c-13.81-1.3-27.61,1.42-41.11,4.07-1.89.37-1.09,3.26.8,2.89Z" transform="translate(-2.73 -3.27)" style="fill:red"/><path d="M524.57,307.75c24.19-14,54.66-14.66,79-.53a79.6,79.6,0,0,1,27.17,26c7.47,11.79,10.65,25.58,17.24,37.82l2.59-1.52-3.3-5.07c-1.05-1.61-3.65-.11-2.59,1.51l3.3,5.08a1.5,1.5,0,0,0,2.59-1.52C643.2,356,639.86,340.66,630.74,328a83.24,83.24,0,0,0-28.35-24.83c-24.8-13.19-55.16-12-79.33,2a1.5,1.5,0,0,0,1.51,2.59Z" transform="translate(-2.73 -3.27)" style="fill:red"/><path d="M524.92,308.25a63.34,63.34,0,0,1,34.65-7c12,1.07,22.77,6.28,33.88,10.58,5.54,2.14,11.41,3.64,16.66,6.45s9.5,7.32,13.13,12.13a141.28,141.28,0,0,1,17.63,31.16l2.21-1.69-22.33-16.71c-1.54-1.15-3,1.45-1.51,2.59l22.32,16.71a1.52,1.52,0,0,0,2.21-1.7,143.65,143.65,0,0,0-18.93-33.17,44,44,0,0,0-11.71-11.06c-5.33-3.21-11.43-4.81-17.22-7-12.26-4.59-23.91-10.46-37.19-11.4a66.53,66.53,0,0,0-35.31,7.52c-1.72.89-.2,3.48,1.51,2.59Z" transform="translate(-2.73 -3.27)" style="fill:red"/><path d="M514,313.79c4.63-13.37,23.95-14.7,35.61-17.14,16.11-3.38,31.73-7.92,47.66-1.36,13.3,5.48,24.2,15.62,33.83,26,5.25,5.68,10.27,11.58,15.21,17.53q3.86,4.67,7.62,9.39c1.82,2.3,12,13.14,4.91,15.1l1.69.69a65,65,0,0,1-9.22-16.84c-.66-1.79-3.57-1-2.9.8a68.42,68.42,0,0,0,9.53,17.56,1.57,1.57,0,0,0,1.69.69c13-3.58-4.23-21-7.66-25.19-9.72-12-19.7-24.1-31.38-34.23-9.72-8.43-21.1-15.68-34-17.69-14.69-2.28-30.22,3-44.47,6-11.62,2.43-26.55,5-31,17.82-.63,1.83,2.27,2.61,2.9.8Z" transform="translate(-2.73 -3.27)" style="fill:red"/><path d="M654.77,357.74,628,334.35l-1.82,2.35a56.76,56.76,0,0,1,21.49,30.24l2.74-1.16a141.35,141.35,0,0,0-19.77-29.43c-1.1-1.27-3.39.45-2.36,1.82l12.68,16.72a1.5,1.5,0,0,0,2.59-1.52,71.52,71.52,0,0,0-14.19-20.22c-1.39-1.4-3.3.66-2.12,2.12a180,180,0,0,0,20.15,21.17,1.51,1.51,0,0,0,2.36-1.82,90.89,90.89,0,0,0-13.58-21.57c-1.18-1.41-3,.38-2.35,1.81A64.82,64.82,0,0,0,650,357a1.51,1.51,0,0,0,2.5-1.46,63.61,63.61,0,0,0-12.26-23.05,1.51,1.51,0,0,0-2.51,1.46A33.8,33.8,0,0,0,646,347c1.18,1.16,3.36-.38,2.36-1.82a89.27,89.27,0,0,0-29.26-26.73,1.52,1.52,0,0,0-2.26,1.29,12.91,12.91,0,0,0,10.4,13.3,1.52,1.52,0,0,0,1.46-2.51,120.44,120.44,0,0,0-23.53-22c-1.33-.94-2.66.84-2.06,2a22.33,22.33,0,0,0,16,12.18,1.51,1.51,0,0,0,1.46-2.51,55.4,55.4,0,0,0-27.72-18,1.52,1.52,0,0,0-1.69,2.21,14.81,14.81,0,0,0,12.56,8.95c1.8.19,1.86-2.39.4-2.95a145,145,0,0,0-29-7.69,1.51,1.51,0,0,0-1.16,2.74,24.32,24.32,0,0,0,11.19,4.27c1.48.19,2-2.18.76-2.8a60,60,0,0,0-37.24-5,1.5,1.5,0,0,0-.66,2.5,9.35,9.35,0,0,0,8.86,2c1.61-.4,1.31-3-.4-2.94a112.9,112.9,0,0,0-30.88,5.94l.8,2.89a100.13,100.13,0,0,0,11.95-5.86,1.5,1.5,0,0,0-1.15-2.74,8.37,8.37,0,0,0-6,6.17,1.53,1.53,0,0,0,1.05,1.85l8.26,2.21-.67-2.51c-3,2.58-7.46,9.92-1.21,11.67,6.63,1.85,13.23-8.14,15.34-13a1.52,1.52,0,0,0-1.69-2.21,10.71,10.71,0,0,0-9.3,10.63,1.51,1.51,0,0,0,1.89,1.45c7.57-2.19,13-6.2,18.69-11.36,2.39-2.14,5.57-2.06,8.49-3.33a25.44,25.44,0,0,0,8.68-6.38,1.52,1.52,0,0,0-1.06-2.56,5.71,5.71,0,0,0-5.41,7.82,1.56,1.56,0,0,0,1.85,1.05,11.09,11.09,0,0,0,5.35-2.28,1.53,1.53,0,0,0,.54-2.05,11.9,11.9,0,0,0-7.77-6,1.5,1.5,0,0,0-.8,2.89,82,82,0,0,1,26.89,13.76l1.52-2.59a51.54,51.54,0,0,1-10.44-9.67l-1.82,2.35a216.37,216.37,0,0,1,20,14.41c1.2,1,3.49-.35,2.36-1.82a19.44,19.44,0,0,1-3.45-6.76l-2.21,1.7a72.33,72.33,0,0,1,14.83,13.33c1.26,1.49,3.3-.64,2.12-2.12l-6-7.52-2.12,2.13a103.21,103.21,0,0,1,12.84,14.77c.78,1.09,2.93.87,2.8-.76a9.25,9.25,0,0,0-2.91-6.45c-1.37-1.41-3.33.66-2.12,2.12l5,6,2.12-2.12q-12.87-11.13-26.71-21c-1.22-.87-2.86.84-2.05,2.05a18.29,18.29,0,0,0,14.34,8.37,1.51,1.51,0,0,0,1.29-2.26,30.75,30.75,0,0,0-18.73-15.49,1.51,1.51,0,0,0-1.46,2.5,46.79,46.79,0,0,0,14.69,8.66c1.58.58,2.72-2.06,1.16-2.74a95,95,0,0,1-16.52-9.27c-1.45-1-2.91,1.15-1.82,2.36a133.49,133.49,0,0,0,22.07,19.45c1.33.93,2.66-.83,2.06-2.06L614.64,306l-2.35,1.82,15.68,16c1.37,1.4,3.34-.67,2.12-2.12a112.27,112.27,0,0,0-37.72-29.25c-1.09-.52-2.64.36-2.2,1.7L592,299.7l2.2-1.69c-14.78-6.47-31.05-2.56-45.78,2.13-4.17,1.33-10.31,3.73-9.68,9.2.45,3.83,4.1,6.4,7.63,4.69l-1.82-2.35a17.7,17.7,0,0,0-4,4.65,1.51,1.51,0,0,0,.9,2.2A36.44,36.44,0,0,0,560,316.8c1.8-.65,1-3.53-.8-2.89a3,3,0,0,0-2.19,3.91c.71,2.38,3.48,2.61,5.53,2.23,1.61-.29,4.1-1.22,3.82-3.34a2.25,2.25,0,0,0-3.25-1.63c-.56.23-1.18.75-1.1,1.44.45,4.07,13.09,6.71,16.42,6.47,3.55-.25,5.22-4.62,1.11-5.45a1.58,1.58,0,0,0-1.7.69l-.37.52a1.5,1.5,0,0,0,.53,2.05l12.44,5.78c2.35,1.1,5.84,3.57,8.6,3.38,3.14-.22,4.53-3.88,1.72-5.64a1.5,1.5,0,0,0-1.82,2.35l8.45,8.49c1.52,1.52,3.15,3.79,5.21,4.65,2.63,1.1,5.29-.5,5-3.4l-2.8.75c3.42,6.27,9.06,9.29,16,10.14,3.56.45,5.64,3.61,8.69,5.52a29.54,29.54,0,0,0,11.45,4.12c1.35.21,2.65-1.37,1.46-2.51l0-4.43c1.4-1.33-.73-3.45-2.12-2.12a5.75,5.75,0,0,0,0,8.68l1.46-2.51a27.49,27.49,0,0,1-10.09-3.44,26,26,0,0,1-5-3.81c-.69-.68-1.46-2.08-2.3-2.44-2.09-.87-5,0-7.3-.69a16.16,16.16,0,0,1-9.62-8c-.67-1.24-3-.76-2.79.76.07.62-3.47-1.82-3.64-2a43.67,43.67,0,0,1-3.53-3.54L601,324.55l-1.82,2.36c-1.3-.82-4-1.39-5.51-2.09l-4.44-2.07-9.77-4.54.54,2.05.37-.52-1.69.69c-2.4-.48-4.94-1.23-7.29-1.95-1-.31-6.47-2.21-6.44-2l-1.1,1.45A4.63,4.63,0,0,0,560,316.8l-.8-2.89a33.37,33.37,0,0,1-16.88,1.73l.89,2.2a15.93,15.93,0,0,1,3.5-4c1.39-1.15-.37-3.05-1.81-2.36q-4.57-4.67-.2-6.61a18.37,18.37,0,0,1,3.3-1.4c1.48-.53,3-.93,4.53-1.37,4.15-1.22,8.32-2.35,12.56-3.19,9.29-1.85,18.8-2.14,27.64,1.73,1.09.48,2.65-.33,2.2-1.69l-1.85-5.57-2.2,1.69A110.52,110.52,0,0,1,628,323.81l2.12-2.12-15.68-16c-1.24-1.27-3.09.33-2.36,1.82l6.48,13.1,2.05-2.05a129.27,129.27,0,0,1-21.47-19l-1.82,2.36a95.33,95.33,0,0,0,16.52,9.27l1.16-2.75a42.3,42.3,0,0,1-13.37-7.88l-1.46,2.51a27.73,27.73,0,0,1,16.94,14.12l1.3-2.26a15.06,15.06,0,0,1-11.75-6.88l-2,2.05q13.53,9.67,26.1,20.55a1.5,1.5,0,0,0,2.12-2.12l-5-6-2.12,2.12,2,4.33,2.79-.75a109,109,0,0,0-13.31-15.39c-1.43-1.36-3.3.65-2.12,2.13l6,7.51,2.12-2.12a75.6,75.6,0,0,0-15.43-13.8,1.52,1.52,0,0,0-2.21,1.69,21.36,21.36,0,0,0,3.76,7.48l2.35-1.82A223.43,223.43,0,0,0,591,299c-1.52-1-2.84,1.12-1.81,2.36a54.52,54.52,0,0,0,11,10.14c1.62,1.12,3-1.45,1.52-2.59a84.21,84.21,0,0,0-27.61-14.06l-.8,2.89a9,9,0,0,1,6,4.63l.54-2.05a9.92,9.92,0,0,1-4.64,2l1.84,1.05,2.52-4-1.06-2.56a22.65,22.65,0,0,1-9.11,6.3c-2.48.88-5,.6-7,2.21-2.83,2.31-4.79,5-8,7.1A38,38,0,0,1,544,317.05l1.9,1.45a7.84,7.84,0,0,1,7.1-7.73l-1.7-2.21a24,24,0,0,1-5.62,8.28c-1.06,1-6.38,5.82-6.66.08-.06-1.14,2.11-2.71,2.87-3.36a1.52,1.52,0,0,0-.67-2.51l-8.26-2.2,1,1.84a4.91,4.91,0,0,1,3.9-4.08l-1.15-2.74a95.4,95.4,0,0,1-11.24,5.56c-1.73.72-1.07,3.53.8,2.89a109.83,109.83,0,0,1,30.08-5.83l-.4-2.95a5.77,5.77,0,0,1-5.94-1.24l-.66,2.51a56.61,56.61,0,0,1,34.92,4.73l.76-2.79a21.36,21.36,0,0,1-9.67-3.86l-1.16,2.74a144.38,144.38,0,0,1,29.05,7.7l.4-2.95a11.87,11.87,0,0,1-10-7.47l-1.69,2.2a52.71,52.71,0,0,1,26.39,17.27l1.46-2.51a19.51,19.51,0,0,1-14.23-10.79l-2,2.05a117.45,117.45,0,0,1,22.93,21.49l1.46-2.5a9.92,9.92,0,0,1-8.2-10.41l-2.26,1.3a85.83,85.83,0,0,1,28.19,25.65l2.36-1.81a30,30,0,0,1-7.47-11.73l-2.51,1.45a59.8,59.8,0,0,1,11.49,21.73l2.51-1.46a63,63,0,0,1-15.77-21.49L634,335.17a87.7,87.7,0,0,1,13.11,21l2.36-1.82a179.3,179.3,0,0,1-20.16-21.17l-2.12,2.12a69.26,69.26,0,0,1,13.72,19.62l2.59-1.52-12.68-16.72-2.35,1.82a138.32,138.32,0,0,1,19.3,28.83c.77,1.52,3.22.46,2.74-1.16a60.06,60.06,0,0,0-22.87-32c-1.37-1-3.09,1.24-1.81,2.36l26.82,23.39c1.44,1.27,3.58-.84,2.12-2.12Z" transform="translate(-2.73 -3.27)" style="fill:red"/><path d="M550.43,299.3a53.43,53.43,0,0,1,44.15-.68c1.72.75,3.24-1.61,1.51-2.59-10.75-6.14-23.27-5.18-35.11-3.62a195.33,195.33,0,0,0-40.13,9.73c-1.8.64-1,3.52.8,2.89a16.9,16.9,0,0,0,9.88-8.36,1.52,1.52,0,0,0-1.7-2.2,57.76,57.76,0,0,0-16.94,6.1l1.81,2.35a38.56,38.56,0,0,1,12.07-7.12l-1.15-2.75-13.68,9.85c-1.54,1.11-.15,3.64,1.51,2.59a169.14,169.14,0,0,1,32.67-16.08c1.79-.65,1-3.51-.8-2.89A92.35,92.35,0,0,0,512,306.17a1.51,1.51,0,0,0,1.06,2.56,29.33,29.33,0,0,0,22.16-12.07c.79-1.06-.52-2.58-1.69-2.2l-22.7,7.38,1.46,2.5a81.34,81.34,0,0,1,21-13.74l-1.51-2.6a81.84,81.84,0,0,0-15.66,11.72c-1,1,0,3.07,1.46,2.51l16.91-6.62-1.16-2.74A72.15,72.15,0,0,1,508.85,303l1.16,2.74q10.05-7.35,20.62-13.94a1.52,1.52,0,0,0-.76-2.8,24.35,24.35,0,0,0-20,8.32,1.51,1.51,0,0,0,1.46,2.5,26.46,26.46,0,0,0,11.94-5.73c1.33-1.09-.39-3.22-1.82-2.36L506.1,301a1.5,1.5,0,0,0,1.51,2.59,42.27,42.27,0,0,0,13.73-10,1.51,1.51,0,0,0-1.81-2.36,34.85,34.85,0,0,0-11.48,10.15c-.89,1.22.85,2.86,2.05,2.06a39.31,39.31,0,0,0,10.24-9.89c.79-1.1-.52-2.53-1.7-2.21a23.19,23.19,0,0,0-10.58,6.2,1.51,1.51,0,0,0,1.82,2.36,219,219,0,0,1,55.59-21.06l-1.16-2.74q-14.37,6.52-29.14,12.07a1.51,1.51,0,0,0,.4,2.95,83.33,83.33,0,0,0,26.64-2.46c1.87-.48,1.08-3.31-.8-2.89a70.22,70.22,0,0,1-19.66,1.55l.4,2.95a82.13,82.13,0,0,1,13-1.06c1.61,0,3.21.06,4.81.18a28.22,28.22,0,0,1,3.67.41c2.46,1.53,2.52,2.24.18,2.1-2.58,1.35-8,.84-10.92.94-3.72.14-7.43.06-11.15-.14l.4,2.95L554,291.53l-1.7-2.21a10.52,10.52,0,0,1-13.91,4.41l.3,2.35a46.56,46.56,0,0,1,52.59-3l.36-2.75a34.9,34.9,0,0,1-32.4-4.13l-.76,2.8a27.68,27.68,0,0,1,23.19,9.09l.3-2.36c-4.93,2.5-9.81-1.24-13-4.72-2.39-2.58-3.09-5.28,1-6.18a14.06,14.06,0,0,1,5.23.51A23,23,0,0,1,591,298.67l1.69-2.2a103.36,103.36,0,0,1-37.5-21L554.17,278l3.86-.14c1.92-.07,1.93-3.07,0-3l-3.86.14a1.52,1.52,0,0,0-1.06,2.56,106.9,106.9,0,0,0,38.83,21.79c1.37.43,2.18-1.09,1.69-2.2a25.7,25.7,0,0,0-13.24-13.26c-4-1.77-11.46-3.79-15.39-.55-4.37,3.6.54,8.78,3.49,11.43,4.27,3.82,9.54,6.29,15,3.52a1.51,1.51,0,0,0,.3-2.35,30.6,30.6,0,0,0-25.31-10,1.51,1.51,0,0,0-.76,2.79,37.76,37.76,0,0,0,34.71,4.44,1.52,1.52,0,0,0,.36-2.74A49.63,49.63,0,0,0,536.57,294a1.51,1.51,0,0,0,.3,2.36,13.57,13.57,0,0,0,18-5.48,1.52,1.52,0,0,0-1.69-2.21l-11.85,4.13a1.5,1.5,0,0,0,.4,2.94,123.51,123.51,0,0,0,26.34-1.42,1.5,1.5,0,0,0,1-1c3.55-10.55-23.57-6.52-27.79-5.85-1.75.27-1.2,2.85.4,2.94a73.29,73.29,0,0,0,20.46-1.66l-.8-2.89a80.64,80.64,0,0,1-25.84,2.35l.39,2.94q15.15-5.69,29.86-12.37c1.61-.73.44-3.1-1.15-2.74a222.15,222.15,0,0,0-56.3,21.36l1.81,2.35a19.78,19.78,0,0,1,9.26-5.42L517.75,292a34.93,34.93,0,0,1-9.16,8.82l2.05,2a31.2,31.2,0,0,1,10.4-9.08l-1.82-2.36A40.33,40.33,0,0,1,506.1,301l1.51,2.59,15.31-9.27L521.11,292a23.38,23.38,0,0,1-10.62,5l1.46,2.51A21.49,21.49,0,0,1,529.87,292l-.76-2.8q-10.58,6.6-20.61,13.95a1.51,1.51,0,0,0,1.15,2.75,74.48,74.48,0,0,0,25.19-10.46c1.35-.88.51-3.4-1.15-2.75l-16.9,6.63,1.46,2.51a77.54,77.54,0,0,1,15-11.25c1.71-1,.21-3.38-1.51-2.6a84.41,84.41,0,0,0-21.65,14.22,1.51,1.51,0,0,0,1.46,2.51l22.71-7.38-1.7-2.2A26.06,26.06,0,0,1,513,305.73l1.06,2.57a88.64,88.64,0,0,1,32-18.89l-.8-2.89a173.1,173.1,0,0,0-33.38,16.38l1.51,2.59,13.68-9.85c1.27-.91.57-3.38-1.16-2.74a43.25,43.25,0,0,0-13.39,7.9c-1.33,1.15.37,3.15,1.82,2.36a55.55,55.55,0,0,1,16.23-5.8l-1.69-2.2a13.89,13.89,0,0,1-8.09,7l.8,2.89a194.64,194.64,0,0,1,36.05-9.15c12.13-1.84,25.74-3.62,36.88,2.74l1.51-2.59a56.7,56.7,0,0,0-47.18.68c-1.74.82-.22,3.41,1.52,2.59Z" transform="translate(-2.73 -3.27)" style="fill:red"/><path d="M563.51,279.24a1.5,1.5,0,0,0,0-3,1.5,1.5,0,0,0,0,3Z" transform="translate(-2.73 -3.27)" style="fill:red"/><path d="M564.88,283.35a1.5,1.5,0,0,0,0-3,1.5,1.5,0,0,0,0,3Z" transform="translate(-2.73 -3.27)" style="fill:red"/><path d="M636.11,334a1.5,1.5,0,0,0,0-3,1.5,1.5,0,0,0,0,3Z" transform="translate(-2.73 -3.27)" style="fill:red"/><path d="M634.74,324.45a1.5,1.5,0,0,0,0-3,1.5,1.5,0,0,0,0,3Z" transform="translate(-2.73 -3.27)" style="fill:red"/><path d="M621,327.18a1.5,1.5,0,0,0,0-3,1.5,1.5,0,0,0,0,3Z" transform="translate(-2.73 -3.27)" style="fill:red"/><path d="M625.15,334a1.5,1.5,0,0,0,0-3,1.5,1.5,0,0,0,0,3Z" transform="translate(-2.73 -3.27)" style="fill:red"/><path d="M548.44,299.79a1.5,1.5,0,0,0,0-3,1.5,1.5,0,0,0,0,3Z" transform="translate(-2.73 -3.27)" style="fill:red"/><path d="M551.18,302.53a1.5,1.5,0,0,0,0-3,1.5,1.5,0,0,0,0,3Z" transform="translate(-2.73 -3.27)" style="fill:red"/><path d="M521,297.05a1.5,1.5,0,0,0,0-3,1.5,1.5,0,0,0,0,3Z" transform="translate(-2.73 -3.27)" style="fill:red"/></svg>